<svg width="107" height="72" viewBox="0 0 107 72" fill="none" xmlns="http://www.w3.org/2000/svg">
<path d="M106.52 20.3414C101.506 -4.50874 53.965 -6.0839 23.3231 12.8483V14.9412C53.9325 -1.03347 97.3515 -0.930207 101.305 21.9551C102.63 29.528 98.4274 37.4175 90.9182 41.9613V47.8998C99.9482 44.5388 109.212 33.6628 106.52 20.3414ZM50.8202 63.8373C29.6832 65.8159 7.64673 62.6972 4.55757 45.9322C3.04624 37.6654 6.76217 28.8987 11.6842 23.4504V20.5396C2.81831 28.4292 -1.98839 38.4185 0.7833 50.213C4.3188 65.3477 23.2268 73.9161 52.0928 71.0714C63.5187 69.9465 78.4639 66.2138 88.8615 60.4212V52.1929C79.4231 57.8988 63.8199 62.616 50.8202 63.8373Z" fill="white"/>
<path d="M87.1493 16.7271H81.6073V41.7795C81.6073 44.7164 83.0047 47.2706 87.1493 47.6795V16.7271ZM21.1443 25.8751H15.5901L15.5847 42.2422C15.5847 45.1887 16.9902 47.7387 21.1443 48.1421V25.8751ZM15.5901 22.8212H21.128V17.4857H15.5901V22.8212ZM54.3408 47.8847C49.857 47.8847 47.9604 44.7164 47.9604 41.5964V19.8622H53.4508V25.8696H57.5887V30.3775H53.4508V41.2522C53.4508 42.5272 54.0437 43.2322 55.3529 43.2322H57.5887V47.8847H54.3408ZM68.9183 30.1132C67.038 30.1132 65.5972 31.0976 64.9826 32.4208C64.6271 33.2167 64.4942 33.8404 64.4576 34.8194H72.9205C72.8147 32.4208 71.7443 30.1132 68.9183 30.1132ZM64.4576 38.6223C64.4576 41.4725 66.2117 43.5764 69.3226 43.5764C71.7605 43.5764 72.9626 42.8879 74.3721 41.4725L77.7693 44.7591C75.5918 46.9429 73.3072 48.2661 69.2846 48.2661C64.0234 48.2661 58.9874 45.3567 58.9874 36.864C58.9874 29.6023 63.3926 25.4992 69.1625 25.4992C75.0301 25.4992 78.4015 30.3018 78.4015 36.6107V38.6223H64.4576ZM36.0678 30.3775C37.6795 30.3775 38.3524 31.1844 38.3524 32.4966V47.9177H43.8469V32.4621C43.8469 29.3325 42.2054 25.8806 37.3756 25.8806L26.0256 25.8737V47.915H31.5202V30.3775H36.0678Z" fill="white"/>
</svg>
