<svg width="171" height="25" viewBox="0 0 171 25" fill="none" xmlns="http://www.w3.org/2000/svg">
<g clip-path="url(#clip0_148_153)">
<path d="M170.951 21.0772V24.1497H170.435V21.7819H170.403L169.547 24.1497H169.103L168.254 21.7819V24.1497H167.731V21.0772H168.508L169.364 23.4842L170.174 21.0772H170.951ZM167.398 21.0772V21.5206H166.398V24.1494H165.882V21.5206H164.883V21.0772H167.398ZM154.477 16.4913C155.254 13.9798 155.254 12.4991 154.51 11.5336C153.955 10.8682 153.145 10.5355 151.917 10.5355C149.18 10.5355 147.664 12.0881 146.442 15.9758C145.659 18.5263 145.659 20.0069 146.403 20.9662C146.919 21.5988 147.775 21.9317 148.997 21.9317C151.694 21.9317 153.255 20.4119 154.477 16.4913ZM165.177 10.8682C166.248 12.2056 166.477 13.9017 165.843 15.9761C164.066 21.7099 157.364 24.9976 147.435 24.9976C141.511 24.9976 137.48 23.8496 135.697 21.6316C134.626 20.3011 134.443 18.5656 135.07 16.4913C136.846 10.7574 143.549 7.46977 153.478 7.46977C159.363 7.46977 163.439 8.65049 165.177 10.8682ZM128.146 8.02401H138.662C138.029 8.87221 126.591 24.2213 126.402 24.4824H110.26C110.182 23.9996 108.255 8.61773 108.183 8.02401H118.073C118.145 8.50679 119.517 19.5638 119.517 19.5638C119.517 19.5638 127.995 8.24589 128.146 8.02401ZM95.5172 16.4913C96.2946 13.9798 96.334 12.4991 95.5563 11.5336C95.0338 10.8682 94.1849 10.5355 93.0022 10.5355C90.2589 10.5355 88.7043 12.0881 87.5216 15.9758C86.7052 18.5263 86.7052 20.0069 87.4824 20.9662C87.9985 21.5988 88.8543 21.9317 90.0364 21.9317C92.7802 21.9317 94.3349 20.4119 95.5172 16.4913ZM106.256 10.8682C107.334 12.2056 107.556 13.9017 106.89 15.9761C105.113 21.7099 98.4046 24.9976 88.5213 24.9976C82.5966 24.9976 78.5597 23.8496 76.7764 21.6316C75.7051 20.3011 75.4831 18.5656 76.1103 16.4913C77.9262 10.7574 84.6281 7.46977 94.5179 7.46977C100.442 7.46977 104.479 8.65049 106.256 10.8682ZM75.3 10.0597C75.705 10.575 75.9272 11.0901 75.8161 11.8338L71.7073 24.5151H60.8182L64.6725 12.6822C64.816 12.1668 64.6332 11.7232 64.3392 11.3905C63.8165 10.7578 62.7062 10.3533 58.8915 10.6141C58.8915 10.6141 54.3779 24.3326 54.2993 24.5151H43.4164C43.5212 24.2215 48.5247 8.95072 48.5966 8.8006C52.379 8.13527 57.3759 7.50895 62.5624 7.50895C69.5973 7.50911 73.889 8.35716 75.3 10.0597ZM35.5647 13.5366C35.7869 12.4994 35.4537 11.7232 35.0811 11.2796C34.6762 10.7578 33.7812 10.0923 31.9328 10.0923C29.3068 10.0923 27.3406 11.3513 26.6741 13.4583L25.3807 18.3051L35.5647 13.5366ZM44.7097 13.4973C44.7097 14.2736 44.5269 14.9391 44.3766 15.2326C44.0434 15.3109 25.0479 19.525 25.0479 19.525C25.0479 19.525 24.8582 20.4514 25.5638 20.9338C26.4915 21.5993 27.4909 21.782 29.1893 21.8538C33.3765 22.0365 39.0461 19.5967 40.6339 18.8986C40.3791 19.7075 38.7459 23.2628 38.674 23.4454C37.9684 23.7063 34.0426 24.9587 26.341 24.9979C23.4144 25.0371 18.1954 24.6652 16.0463 21.9646C14.975 20.6341 14.7858 18.7487 15.5238 16.3808C17.2679 10.725 23.7871 7.47009 33.3371 7.47009C38.674 7.47009 42.1556 8.4681 43.7495 10.4251C44.3766 11.2404 44.7097 12.2776 44.7097 13.4973ZM7.63937 0.000488281H18.4177C18.1957 0.698576 10.9385 24.0714 10.8208 24.4824H0.0491943C0.271064 23.7779 7.52827 0.405084 7.63937 0.000488281Z" fill="white"/>
</g>
<defs>
<clipPath id="clip0_148_153">
<rect width="171" height="25" fill="white"/>
</clipPath>
</defs>
</svg>
